<?xml version="1.0" encoding="UTF-8" standalone="no"?><svg xmlns="http://www.w3.org/2000/svg" xmlns:xlink="http://www.w3.org/1999/xlink" clip-rule="evenodd" stroke-miterlimit="10" viewBox="0 0 22 312"><desc>SVG generated by Keynote</desc><defs></defs><g transform="matrix(1.00, 0.00, -0.00, -1.00, 0.0, 312.0)"><text xml:space="preserve" font-family="LucidaSans,Lucida Sans" font-size="16.0" fill="#8D3024" transform="matrix(1.00, 0.00, -0.00, -1.00, 0.6, 298.4)">0</text><text xml:space="preserve" font-family="LucidaSans,Lucida Sans" font-size="16.0" fill="#8D3024" transform="matrix(1.00, 0.00, -0.00, -1.00, 10.7, 298.4)"> </text><text xml:space="preserve" font-family="LucidaSans,Lucida Sans" font-size="16.0" fill="#8D3024" transform="matrix(1.00, 0.00, -0.00, -1.00, 0.6, 271.4)">1</text><text xml:space="preserve" font-family="LucidaSans,Lucida Sans" font-size="16.0" fill="#8D3024" transform="matrix(1.00, 0.00, -0.00, -1.00, 10.7, 271.4)"> </text><text xml:space="preserve" font-family="LucidaSans,Lucida Sans" font-size="16.0" fill="#8D3024" transform="matrix(1.00, 0.00, -0.00, -1.00, 0.6, 244.4)">2</text><text xml:space="preserve" font-family="LucidaSans,Lucida Sans" font-size="16.0" fill="#8D3024" transform="matrix(1.00, 0.00, -0.00, -1.00, 10.7, 244.4)"> </text><text xml:space="preserve" font-family="LucidaSans,Lucida Sans" font-size="16.0" fill="#8D3024" transform="matrix(1.00, 0.00, -0.00, -1.00, 0.6, 217.4)">3</text><text xml:space="preserve" font-family="LucidaSans,Lucida Sans" font-size="16.0" fill="#8D3024" transform="matrix(1.00, 0.00, -0.00, -1.00, 10.7, 217.4)"> </text><text xml:space="preserve" font-family="LucidaSans,Lucida Sans" font-size="16.0" fill="#8D3024" transform="matrix(1.00, 0.00, -0.00, -1.00, 0.6, 190.4)">4</text><text xml:space="preserve" font-family="LucidaSans,Lucida Sans" font-size="16.0" fill="#8D3024" transform="matrix(1.00, 0.00, -0.00, -1.00, 10.7, 190.4)"> </text><text xml:space="preserve" font-family="LucidaSans,Lucida Sans" font-size="16.0" fill="#8D3024" transform="matrix(1.00, 0.00, -0.00, -1.00, 0.6, 163.4)">5</text><text xml:space="preserve" font-family="LucidaSans,Lucida Sans" font-size="16.0" fill="#8D3024" transform="matrix(1.00, 0.00, -0.00, -1.00, 10.7, 163.4)"> </text><text xml:space="preserve" font-family="LucidaSans,Lucida Sans" font-size="16.0" fill="#8D3024" transform="matrix(1.00, 0.00, -0.00, -1.00, 0.6, 136.4)">6</text><text xml:space="preserve" font-family="LucidaSans,Lucida Sans" font-size="16.0" fill="#8D3024" transform="matrix(1.00, 0.00, -0.00, -1.00, 10.7, 136.4)"> </text><text xml:space="preserve" font-family="LucidaSans,Lucida Sans" font-size="16.0" fill="#8D3024" transform="matrix(1.00, 0.00, -0.00, -1.00, 0.6, 109.4)">7</text><text xml:space="preserve" font-family="LucidaSans,Lucida Sans" font-size="16.0" fill="#8D3024" transform="matrix(1.00, 0.00, -0.00, -1.00, 10.7, 109.4)"> </text><text xml:space="preserve" font-family="LucidaSans,Lucida Sans" font-size="16.0" fill="#8D3024" transform="matrix(1.00, 0.00, -0.00, -1.00, 0.6, 82.4)">8</text><text xml:space="preserve" font-family="LucidaSans,Lucida Sans" font-size="16.0" fill="#8D3024" transform="matrix(1.00, 0.00, -0.00, -1.00, 10.7, 82.4)"> </text><text xml:space="preserve" font-family="LucidaSans,Lucida Sans" font-size="16.0" fill="#8D3024" transform="matrix(1.00, 0.00, -0.00, -1.00, 0.6, 55.4)">9</text><text xml:space="preserve" font-family="LucidaSans,Lucida Sans" font-size="16.0" fill="#8D3024" transform="matrix(1.00, 0.00, -0.00, -1.00, 10.7, 55.4)"> </text><text xml:space="preserve" font-family="LucidaSans,Lucida Sans" font-size="16.0" fill="#8D3024" transform="matrix(1.00, 0.00, -0.00, -1.00, 0.6, 28.4)">1</text><text xml:space="preserve" font-family="LucidaSans,Lucida Sans" font-size="16.0" fill="#8D3024" transform="matrix(1.00, 0.00, -0.00, -1.00, 10.7, 28.4)">0</text><text xml:space="preserve" font-family="LucidaSans,Lucida Sans" font-size="16.0" fill="#8D3024" transform="matrix(1.00, 0.00, -0.00, -1.00, 20.9, 28.4)"> </text><text xml:space="preserve" font-family="LucidaSans,Lucida Sans" font-size="16.0" fill="#8D3024" transform="matrix(1.00, 0.00, -0.00, -1.00, 0.6, 1.4)">1</text><text xml:space="preserve" font-family="LucidaSans,Lucida Sans" font-size="16.0" fill="#8D3024" transform="matrix(1.00, 0.00, -0.00, -1.00, 10.7, 1.4)">1</text></g></svg>